<svg width="29" height="29" viewBox="0 0 29 29" fill="none" xmlns="http://www.w3.org/2000/svg">
<path d="M2 4C2 2.89543 2.89543 2 4 2H10.5C11.6046 2 12.5 2.89543 12.5 4V10.5C12.5 11.6046 11.6046 12.5 10.5 12.5H4C2.89543 12.5 2 11.6046 2 10.5V4Z" fill="white" stroke="white" stroke-width="2.5" stroke-linecap="round" stroke-linejoin="round"/>
<path d="M2 19C2 17.8954 2.89543 17 4 17H10.5C11.6046 17 12.5 17.8954 12.5 19V25.5C12.5 26.6046 11.6046 27.5 10.5 27.5H4C2.89543 27.5 2 26.6046 2 25.5V19Z" fill="white" stroke="white" stroke-width="2.5" stroke-linecap="round" stroke-linejoin="round"/>
<path d="M17 4C17 2.89543 17.8954 2 19 2H25.5C26.6046 2 27.5 2.89543 27.5 4V10.5C27.5 11.6046 26.6046 12.5 25.5 12.5H19C17.8954 12.5 17 11.6046 17 10.5V4Z" fill="white" stroke="white" stroke-width="2.5" stroke-linecap="round" stroke-linejoin="round"/>
<path d="M17 19C17 17.8954 17.8954 17 19 17H25.5C26.6046 17 27.5 17.8954 27.5 19V25.5C27.5 26.6046 26.6046 27.5 25.5 27.5H19C17.8954 27.5 17 26.6046 17 25.5V19Z" fill="white" stroke="white" stroke-width="2.5" stroke-linecap="round" stroke-linejoin="round"/>
</svg>
