<svg width="24" height="22" viewBox="0 0 24 22" fill="none" xmlns="http://www.w3.org/2000/svg">
<path d="M22.4057 18.4516L21.4936 9.0399C21.3754 7.82038 20.1899 6.88235 18.7668 6.88235H17.1802H6.23518H4.64853C3.22543 6.88235 2.03991 7.82038 1.92173 9.0399L1.00964 18.4516C0.8767 19.8234 2.13562 21 3.73644 21H19.6789C21.2798 21 22.5387 19.8234 22.4057 18.4516Z" stroke="#EC7609" stroke-width="2" stroke-linecap="round" stroke-linejoin="round"/>
<path d="M17.1802 11.5882V6.88235V5.70588C17.1802 4.4578 16.6036 3.26085 15.5773 2.37832C14.551 1.4958 13.1591 1 11.7077 1C10.2562 1 8.86432 1.4958 7.83802 2.37832C6.81174 3.26085 6.23517 4.4578 6.23517 5.70588V6.88235V11.5882" stroke="#EC7609" stroke-width="2" stroke-linecap="round" stroke-linejoin="round"/>
</svg>
