<svg width="22" height="22" viewBox="0 0 22 22" fill="none" xmlns="http://www.w3.org/2000/svg">
<path d="M20.9994 18.9849V15.9741C21.0116 15.4819 20.8422 15.0024 20.5232 14.6267C19.6239 13.5674 16.5394 12.8898 15.3167 13.15C14.3637 13.3529 13.6968 14.3098 13.045 14.9605C10.5274 13.5317 8.44288 11.4514 7.01134 8.93868C7.66323 8.28811 8.6221 7.62263 8.82539 6.67143C9.08572 5.45309 8.40904 2.38832 7.35703 1.48538C6.987 1.16778 6.51386 0.995298 6.02584 1.0001H3.00901C1.85953 1.00118 0.903194 2.03217 1.00785 3.18799C0.999994 13.15 8.77784 21 18.8072 20.9922C19.9692 21.097 21.0041 20.1359 20.9994 18.9849Z" stroke="#161616" stroke-width="2" stroke-linecap="round" stroke-linejoin="round"/>
</svg>
