<svg width="29" height="22" viewBox="0 0 29 22" fill="none" xmlns="http://www.w3.org/2000/svg">
<path d="M18.7778 21H9.88889H1V18.7778C1 16.3232 2.98984 14.3333 5.44444 14.3333H14.3333C15.6425 14.3333 16.8194 14.8994 17.6328 15.8001" stroke="#EC7609" stroke-width="2" stroke-linecap="round" stroke-linejoin="round"/>
<path d="M9.88889 9.88889C12.3434 9.88889 14.3333 7.89904 14.3333 5.44444C14.3333 2.98984 12.3434 1 9.88889 1C7.43429 1 5.44444 2.98984 5.44444 5.44444C5.44444 7.89904 7.43429 9.88889 9.88889 9.88889Z" stroke="#EC7609" stroke-width="2" stroke-linecap="round" stroke-linejoin="round"/>
<path d="M24.75 15.75H18.25C16.4551 15.75 15 17.2051 15 19V21H21.5H28V19C28 17.2051 26.5449 15.75 24.75 15.75Z" stroke="#EC7609" stroke-width="2" stroke-linecap="round" stroke-linejoin="round"/>
<path d="M21.5 12.5C23.2949 12.5 24.75 11.0449 24.75 9.25C24.75 7.45507 23.2949 6 21.5 6C19.7051 6 18.25 7.45507 18.25 9.25C18.25 11.0449 19.7051 12.5 21.5 12.5Z" stroke="#EC7609" stroke-width="2" stroke-linecap="round" stroke-linejoin="round"/>
</svg>
