<svg width="75" height="73" viewBox="0 0 75 73" fill="none" xmlns="http://www.w3.org/2000/svg">
<ellipse cx="37.0141" cy="36.5" rx="37.0141" ry="36.5" fill="#FFC045"/>
<path fill-rule="evenodd" clip-rule="evenodd" d="M41.3396 5.39273C40.4233 5.84757 39.9278 6.8386 40.0602 7.9522C40.1893 9.03863 40.6765 10.0599 41.2649 10.4773L41.76 10.8287L42.4478 10.4861C43.7857 9.81966 45.4616 7.80613 45.461 6.86561C45.4607 6.41972 44.7649 5.72451 44.0798 5.48527C42.8529 5.05696 42.0694 5.03043 41.3396 5.39273ZM41.3716 11.5441C41.1951 11.5847 40.6539 11.6958 40.1687 11.7907C39.0026 12.0187 36.5734 13.1061 36.0265 13.6447C35.776 13.8913 35.1863 14.221 35.1316 14.1449C35.1108 14.1159 34.8977 13.7508 34.6581 13.3339C33.9944 12.1789 33.0674 11.8194 32.1483 12.3604C31.1477 12.9494 31.0653 14.4265 31.9252 16.3536C32.0487 16.6306 32.1499 16.8992 32.1499 16.9504C32.1499 17.0736 32.6574 18.0934 35.1416 22.9619C36.2852 25.2033 37.4693 27.7564 37.7727 28.6354L38.3244 30.2335V33.9892C38.3244 36.0549 38.2245 40.0437 38.1024 42.8533C37.8853 47.8473 37.9504 52.4514 38.2421 52.7473C38.3177 52.8238 38.344 52.9788 38.3005 53.0917C38.186 53.3892 38.7125 55.3647 39.0652 55.9604C39.2309 56.2402 39.551 56.5675 39.7765 56.6878C40.3492 56.9933 40.9217 56.6318 41.4891 55.6059C42.2066 54.3087 42.3027 53.1938 42.3393 45.7358C42.3721 39.0134 42.4461 37.9847 42.8951 37.9847C43.3512 37.9847 43.4062 38.9442 43.2982 45.0166C43.1814 51.5851 43.2818 53.3084 43.8747 54.9252C44.2473 55.9413 44.4161 56.1841 45.0145 56.5656C45.5601 56.9132 45.7219 56.9129 46.089 56.5634C46.8025 55.8838 47.1079 54.868 47.4942 51.8887C47.7321 50.0539 47.7758 48.273 47.7864 39.9824C47.7989 30.3584 47.8036 30.2174 48.1612 28.9745C48.6223 27.3717 49.2993 25.4159 49.5754 24.8886C49.6931 24.6639 49.7897 24.4234 49.7903 24.354C49.7908 24.2847 50.0391 23.6734 50.342 22.9956C50.645 22.3178 51.26 20.9002 51.7089 19.8454C52.1578 18.7907 52.6317 17.724 52.7619 17.4752C52.8922 17.2264 52.9988 16.9496 52.9988 16.8601C52.9988 16.7706 53.1015 16.4708 53.2269 16.1938C53.5887 15.3945 53.9611 13.9341 53.9611 13.3145C53.9611 12.6671 53.4692 12.0943 52.913 12.0943C52.1126 12.0943 51.1418 12.8909 50.7912 13.8352C50.6666 14.1708 50.666 14.1708 50.0761 13.7714C49.0305 13.0633 47.1754 12.2067 46.0225 11.8997C44.9443 11.6123 42.0382 11.3902 41.3716 11.5441ZM46.3432 14.7136C48.0164 15.2462 49.6309 16.1917 49.6308 16.6386C49.6306 17.2259 48.7262 18.8635 47.9038 19.7655C45.9176 21.9443 42.9508 22.6769 40.2271 21.6614C39.754 21.485 39.3669 21.2827 39.3669 21.2117C39.3669 21.1409 39.1683 20.9979 38.9258 20.894C38.6833 20.7903 38.2179 20.3613 37.8917 19.941C37.1516 18.9876 36.1213 16.9651 36.1906 16.6016C36.2559 16.2582 38.3746 15.0489 39.4636 14.7334C41.7863 14.0606 44.2699 14.0534 46.3432 14.7136ZM41.4129 15.0386C40.2533 15.4511 39.568 16.8558 39.8369 18.2689C40.1538 19.9346 40.9812 21.2066 41.7447 21.2025C42.6294 21.1975 45.0164 19.1733 45.6321 17.9058C46.1204 16.9005 45.9724 16.2787 45.0977 15.6603C43.982 14.8718 42.5577 14.6316 41.4129 15.0386ZM27.9 18.3355C27.3103 18.5129 26.6946 19.0518 26.3754 19.67C26.0544 20.2915 26.0869 21.9395 26.4383 22.8566C26.735 23.6305 27.6467 24.561 28.1061 24.5586C28.529 24.5562 29.8992 23.6997 30.7486 22.9069C31.6087 22.1038 32.3878 20.5744 32.2385 19.9818C31.9543 18.8528 29.4006 17.8839 27.9 18.3355ZM56.1262 19.1921C55.4861 19.4755 54.8564 20.1678 55.0115 20.4176C55.0876 20.5403 55.0669 20.5731 54.9562 20.505C54.8451 20.4364 54.7386 20.6113 54.6703 20.9744C54.3914 22.4554 55.1387 24.634 56.0816 25.0892C56.5236 25.3026 56.6644 25.3062 57.1195 25.1167C58.9688 24.3468 60.7058 22.3496 60.6911 21.0105C60.6826 20.2343 60.1312 19.6836 58.978 19.2989C57.8415 18.9201 56.826 18.8821 56.1262 19.1921ZM19.7115 24.8421C19.3673 25.0804 18.9993 25.7615 19.0026 26.1539C19.0046 26.376 19.1454 26.8635 19.3155 27.237C19.711 28.1053 20.1533 28.1305 21.1088 27.3394C22.3708 26.2947 22.5109 25.4553 21.5026 24.9786C20.9336 24.7096 20.0053 24.6388 19.7115 24.8421ZM26.7773 25.6868C24.1444 25.9784 21.8801 27.4686 20.8348 29.5978C19.7915 31.7226 20.5103 33.6458 22.7509 34.7245C23.6572 35.1608 25.158 35.5874 25.7873 35.5874C26.5972 35.5874 26.5494 36.4806 25.5569 39.8933C24.8871 42.1961 24.4536 44.4644 24.4525 45.671C24.4517 46.5042 24.5313 46.5972 25.9758 47.4559C27.7008 48.4814 27.7085 48.4971 27.8434 51.2952C27.9842 54.2148 28.064 54.7868 28.4544 55.6663C28.7828 56.4059 29.5514 56.9257 30.0731 56.7606C30.3693 56.6669 30.3858 56.4942 30.3858 53.4856C30.3858 51.7386 30.4434 50.2739 30.5138 50.2306C30.9008 49.9923 30.998 50.5156 31.0602 53.1672C31.1218 55.7988 31.2958 56.843 31.6727 56.843C31.9355 56.843 32.6407 55.9599 32.8048 55.425C32.9026 55.1061 33.0346 53.5868 33.0981 52.0485C33.1693 50.3222 33.2905 49.1101 33.4147 48.8816C33.5253 48.6782 33.9176 48.3766 34.2861 48.2115C35.0746 47.8586 35.543 47.4854 35.8891 46.9344C36.38 46.1529 35.8217 42.1321 34.7838 38.9746C34.2401 37.3209 34.1296 36.626 34.3575 36.2955C34.4223 36.2016 34.8064 35.9671 35.2109 35.7745C36.0121 35.3931 36.2309 35.0838 36.4734 33.9892C36.9413 31.8766 36.2527 29.1132 34.9681 27.9486C34.3128 27.3544 33.1029 26.7246 31.6752 26.2344C31.049 26.0195 28.1968 25.4844 27.9802 25.5413C27.9361 25.5528 27.3948 25.6183 26.7773 25.6868ZM55.785 26.56C53.5835 27.1515 52.2675 28.5067 51.3731 31.1036C49.9491 35.2377 49.3333 39.5256 50.0445 40.3533C50.4044 40.7722 51.0865 40.8069 51.7129 40.4382C52.3331 40.073 52.5735 39.2007 52.6285 37.1152C52.6911 34.7461 53.0785 34.399 53.487 36.3464C53.8402 38.03 53.6302 41.4552 52.9945 44.3773C52.0077 48.914 51.7477 51.9295 52.2093 53.4869C52.5001 54.4678 53.5019 56.082 53.9635 56.3132C54.4982 56.5811 54.8188 56.3543 55.2199 55.4253C55.7353 54.2315 55.9927 53.1006 56.3605 50.4147C57.01 45.6714 57.1697 44.9538 57.5022 45.2851C57.5811 45.3637 57.7166 47.1874 57.8034 49.3376C58.0066 54.3727 58.2839 55.9748 59.0206 56.3677C59.4878 56.6169 59.8645 56.4096 60.6236 55.4865C60.9849 55.0472 61.1764 54.6721 61.1175 54.5191C61.0646 54.3819 61.0872 54.3099 61.1679 54.3596C61.3931 54.4984 61.8436 52.7524 61.9398 51.3677C62.0262 50.1235 61.9815 49.6737 61.2288 44.2292C60.7153 40.5144 60.7503 37.6615 61.3276 36.1782C61.9584 34.5575 62.3232 35.2985 62.0719 37.6898C61.875 39.5646 62.1289 40.4788 62.9729 40.9341C63.7686 41.3633 64.2877 41.1193 64.7449 40.1014C65.5991 38.1993 64.7834 32.5641 63.2311 29.6445C61.8877 27.1176 58.6704 25.7847 55.785 26.56ZM13.4661 29.3095C12.0739 29.6465 11.301 30.2947 11.301 31.1253C11.301 32.4233 14.0364 35.141 15.0801 34.8799C15.8241 34.6939 16.7538 32.9915 16.7538 31.8149C16.7538 30.0366 15.237 28.8807 13.4661 29.3095ZM24.8309 29.9149C24.9636 30.0472 25.1133 30.284 25.1633 30.4411C25.3038 30.8821 27.6198 31.844 28.8582 31.9755C29.0443 31.9954 29.2733 32.0588 29.3672 32.1167C29.4611 32.1743 29.8436 32.26 30.2174 32.3068C31.6693 32.4886 31.4597 32.7009 29.8245 32.7049C26.8452 32.7121 24.0339 32.0833 23.7499 31.346C23.3296 30.2543 24.1205 29.207 24.8309 29.9149ZM12.8246 35.8995C11.2127 36.3002 11.0412 36.5113 10.6478 38.5809C10.2961 40.4319 10.6969 43.7782 11.3715 44.6212C11.7057 45.039 11.8311 45.0799 12.8421 45.1002C14.1756 45.127 15.4684 45.5894 16.3769 46.3642C17.226 47.0885 18.0368 48.6126 18.0368 49.4844C18.0368 50.701 18.1437 50.77 20.0234 50.77C21.4745 50.77 21.7441 50.8143 22.2143 51.1301C23.082 51.7128 23.3605 52.3637 23.5201 54.1822C23.7198 56.456 23.8506 56.7943 24.6184 57.0236C25.3803 57.251 26.4713 56.921 26.4346 56.4743C26.4226 56.3275 26.4715 56.2434 26.5433 56.2877C26.7749 56.4302 26.8883 55.7288 26.7709 54.8792C26.6391 53.9238 26.4486 53.3579 25.7373 51.8088C24.624 49.3844 24.2022 48.6491 23.6284 48.1325C22.9535 47.5249 22.3622 47.3229 20.5227 47.0714C18.6281 46.8121 18.1626 46.5233 17.6726 45.3031C17.2512 44.2535 16.8197 41.942 16.9931 41.6624C17.1474 41.4138 17.4208 41.465 18.3161 41.9094C19.1114 42.3045 19.1569 42.3093 19.6557 42.0521C20.3772 41.6804 21.7415 40.3773 21.6179 40.178C21.5568 40.0794 21.5945 40.0615 21.7114 40.1335C21.9319 40.2692 22.0408 40.1489 23.1511 38.544C24.0115 37.3002 24.1874 36.887 23.9903 36.5744C23.8131 36.2931 22.7513 36.3865 22.812 36.678C22.8363 36.7945 22.7907 36.8495 22.7108 36.8002C22.5687 36.7127 22.1753 36.9799 20.4948 38.3052C19.0047 39.4804 18.5063 39.3846 16.205 37.4815C15.0344 36.5135 13.8111 35.7491 13.4661 35.7702C13.3779 35.7755 13.0892 35.8337 12.8246 35.8995ZM6.81052 36.6572C6.30742 36.8364 6.16901 37.2479 6.16901 38.5641C6.16901 39.2888 6.27791 40.4076 6.41118 41.0507C6.70034 42.4469 7.29886 44.2175 7.48169 44.2175C7.55354 44.2175 7.6124 44.315 7.6124 44.4341C7.6124 44.7729 8.59165 45.4964 9.04664 45.4936C9.98821 45.488 10.0113 45.3246 9.39546 43.0333C9.02291 41.647 8.95619 39.9587 9.23091 38.8715C9.44726 38.0153 9.29266 37.6781 8.38188 37.0208C7.75337 36.5669 7.33527 36.4702 6.81052 36.6572ZM63.4707 41.807C62.9989 42.2497 62.8777 43.0091 63.0132 44.6727C63.0752 45.4331 63.1561 46.6307 63.1931 47.3339C63.3965 51.2001 64.1114 56.1974 64.4782 56.316C65.0875 56.513 65.1791 54.2975 64.6942 51.0896C64.2886 48.4065 63.9087 45.0121 63.9063 44.0497C63.9042 43.2765 64.1084 42.939 64.578 42.939C64.7962 42.939 64.8673 43.0657 64.8691 43.4584C64.8726 44.1918 65.0995 44.5058 65.4636 44.2811C65.8249 44.0579 65.9014 43.557 65.6748 42.8963C65.2589 41.683 64.1743 41.1471 63.4707 41.807ZM56.797 45.6859C56.7458 45.8133 56.7078 45.7754 56.7001 45.5892C56.6932 45.4208 56.7311 45.3265 56.7843 45.3795C56.8376 45.4326 56.8434 45.5705 56.797 45.6859ZM11.4614 46.0765C7.46918 46.7568 5.98683 47.8939 6.20462 50.1095C6.26813 50.7569 7.11636 52.7736 7.42203 53.0042C7.48266 53.0499 7.95464 53.5743 8.47073 54.1693C9.62399 55.4988 10.9625 56.5421 12.3369 57.1831C13.2794 57.6226 13.4342 57.6511 13.9527 57.4805C15.2065 57.0682 16.545 55.029 17.0167 52.8126C17.6513 49.8308 16.6294 47.2938 14.4476 46.4343C13.7441 46.1572 12.1259 45.9633 11.4614 46.0765ZM18.7446 51.8094C18.4724 51.949 18.1273 52.3189 17.9777 52.6315C17.7196 53.1706 17.7207 53.2256 17.999 53.7004C18.1823 54.0132 18.5359 54.2919 18.9412 54.4432C19.2982 54.5765 20.1075 54.895 20.74 55.1511C21.76 55.564 21.9346 55.5925 22.2887 55.4037C22.6021 55.2366 22.6877 55.0654 22.6877 54.607C22.6877 53.7199 22.2461 52.6159 21.6955 52.127C21.0692 51.571 19.5327 51.4056 18.7446 51.8094Z" fill="white"/>
</svg>
