<svg width="100%" height="100%" viewBox="0 0 30 27" fill="none" xmlns="http://www.w3.org/2000/svg">
<path d="M26 17.4355C27.8169 15.3496 28.7778 13.5001 28.7778 13.5001C28.7778 13.5001 23.7272 3.77783 14.8889 3.77783C14.415 3.77783 13.9519 3.80579 13.5 3.85869C13.0247 3.91433 12.5616 3.99758 12.1111 4.10494" stroke="#414141" stroke-width="1.5" stroke-linecap="round" stroke-linejoin="round"/>
<path d="M14.8889 9.33337C15.3759 9.33337 15.8434 9.41692 16.2778 9.57047C17.4617 9.98892 18.4 10.9273 18.8185 12.1112C18.972 12.5456 19.0556 13.0131 19.0556 13.5" stroke="#414141" stroke-width="1.5" stroke-linecap="round" stroke-linejoin="round"/>
<path d="M2.38892 1L27.3889 26" stroke="#414141" stroke-width="1.5" stroke-linecap="round" stroke-linejoin="round"/>
<path d="M14.8889 17.6667C14.4019 17.6667 13.9344 17.5831 13.5 17.4296C12.3161 17.0111 11.3777 16.0728 10.9593 14.8889C10.8803 14.6656 10.8199 14.4335 10.7798 14.1945" stroke="#414141" stroke-width="1.5" stroke-linecap="round" stroke-linejoin="round"/>
<path d="M3.98196 9.33337C3.55385 9.81186 3.16992 10.2812 2.83144 10.7223C1.62897 12.2892 1 13.5 1 13.5C1 13.5 6.0505 23.2223 14.8889 23.2223C15.3628 23.2223 15.8258 23.1943 16.2778 23.1414" stroke="#414141" stroke-width="1.5" stroke-linecap="round" stroke-linejoin="round"/>
</svg>
