<svg width="29" height="29" viewBox="0 0 29 29" fill="none" xmlns="http://www.w3.org/2000/svg">
<path d="M2 4C2 2.89543 2.89543 2 4 2H10.2941C11.3987 2 12.2941 2.89543 12.2941 4V10.2941C12.2941 11.3987 11.3987 12.2941 10.2941 12.2941H4C2.89543 12.2941 2 11.3987 2 10.2941V4Z" stroke="#EC7609" stroke-width="2.5" stroke-linecap="round" stroke-linejoin="round"/>
<path d="M2 18.7059C2 17.6013 2.89543 16.7059 4 16.7059H10.2941C11.3987 16.7059 12.2941 17.6013 12.2941 18.7059V25C12.2941 26.1046 11.3987 27 10.2941 27H4C2.89543 27 2 26.1046 2 25V18.7059Z" stroke="#EC7609" stroke-width="2.5" stroke-linecap="round" stroke-linejoin="round"/>
<path d="M16.7059 4C16.7059 2.89543 17.6013 2 18.7059 2H25C26.1046 2 27 2.89543 27 4V10.2941C27 11.3987 26.1046 12.2941 25 12.2941H18.7059C17.6013 12.2941 16.7059 11.3987 16.7059 10.2941V4Z" stroke="#EC7609" stroke-width="2.5" stroke-linecap="round" stroke-linejoin="round"/>
<path d="M16.7059 18.7059C16.7059 17.6013 17.6013 16.7059 18.7059 16.7059H25C26.1046 16.7059 27 17.6013 27 18.7059V25C27 26.1046 26.1046 27 25 27H18.7059C17.6013 27 16.7059 26.1046 16.7059 25V18.7059Z" stroke="#EC7609" stroke-width="2.5" stroke-linecap="round" stroke-linejoin="round"/>
</svg>
